<?xml version="1.0" encoding="utf-8" ?>
<svg xmlns="http://www.w3.org/2000/svg" xmlns:xlink="http://www.w3.org/1999/xlink" width="270" height="270">
	<path fill="#AFAFAF" transform="scale(0.264473 0.264473)" d="M441.987 31.4822C442.179 31.4628 442.371 31.425 442.565 31.4239C446.915 31.3994 452.059 33.7099 456.13 35.2329C480.447 44.3305 504.416 54.6477 528.557 64.2332L673.445 121.742L770.592 160.573C783.345 165.736 796.47 170.393 809 176.041C816.428 179.389 823.329 183.028 829.214 188.754C855.347 214.175 850.803 255.606 850.399 288.669Q849.947 320.065 850.156 351.462C858.665 354.3 869.254 358.516 876.176 364.207C884.894 371.375 892.401 380.882 899.975 389.245L934.298 426.491C943.572 436.493 952.923 446.469 962.386 456.292C970.604 464.824 981 473.451 986.947 483.685C987.156 526.998 989.158 570.325 989.506 613.64C989.59 624.134 990.573 634.73 990.211 645.203C990.107 648.23 989.785 651.273 988.722 654.126C984.09 659.176 968.301 664.601 961.31 667.534C961.634 677.924 961.364 688.34 961.418 698.736L961.917 735.942C961.995 748.472 963.194 761.606 961.761 774.034C955.82 777.167 949.47 779.759 943.384 782.628L901.885 802.164L794.625 852.96L561.127 965.262C544.955 972.757 528.97 980.889 512.546 987.805C499.385 984.391 481.979 975.553 469.019 970.073L381.093 933.07Q272.289 887.963 164.112 841.367C133.559 828.429 102.641 816.33 72.2643 802.983C68.875 801.494 65.3728 799.955 62.5663 797.489C60.1528 792.733 61.4012 711.583 61.6611 699.721C53.3691 696.44 43.1954 693.532 36.3502 687.639C33.0001 678.899 34.5404 648.705 34.5525 637.306C40.8959 629.936 48.5883 623.607 55.669 616.948Q75.9273 597.668 96.6398 578.876C106.508 569.818 115.972 559.107 126.823 551.296C133.063 546.804 140.683 544.066 147.559 540.698C156.156 536.487 164.526 531.699 173.43 528.154C175.766 527.224 178.002 526.606 180.48 526.177C185.725 515.763 190.141 504.689 194.689 493.945L217.018 440.467Q241.88 381.979 267.704 323.911C276.221 304.664 284.03 284.89 293.149 265.937C294.343 263.455 295.803 260.092 297.812 258.175C301.896 254.28 370.172 224.314 379.734 220.365C378.797 199.529 379.695 178.478 379.386 157.607L378.707 107.409C378.491 94.9632 377.977 82.4067 378.451 69.9682C378.578 66.6426 378.755 63.711 379.871 60.5268C389.681 54.0289 401.263 49.3794 411.978 44.5284C421.883 40.044 431.794 35.2648 441.987 31.4822ZM304.346 269.572L233.156 432.598L198.966 512.67C191.445 530.436 184.451 548.316 176.196 565.765L436.306 671.598L526.809 709.798C547.808 718.773 568.923 728.27 590.335 736.187Q645.288 611.783 698.869 486.782C705.517 471.324 711.267 455.492 718.052 440.088C692.746 427.492 666.127 417.576 639.964 406.921L527.787 361.008L403.276 310.023C370.615 296.405 337.496 281.806 304.346 269.572ZM869.29 374.987C851.07 384.448 832.354 392.815 813.806 401.595L731.506 440.85C727.017 449.822 723.373 459.265 719.569 468.544Q711.826 487.863 703.444 506.914L628.095 679.818Q618.707 701.349 609.571 722.989C605.872 731.76 602.383 742.843 596.923 750.632C592.816 756.491 572.266 771.432 565.41 777.405Q552.599 788.568 540.056 800.032C533.695 805.833 527.426 811.961 520.516 817.108C546.412 806.287 571.68 793.106 596.872 780.712Q704.631 728.88 813.467 679.345C868.292 653.899 922.521 627.098 977.508 602.009L975.353 488.482C962.38 476.067 873.444 376.334 869.29 374.987ZM133.898 561.501C125.228 569.992 115.906 577.864 106.964 586.074L50.6926 637.998C57.1905 641.265 64.175 643.797 70.9116 646.543Q89.4647 654.165 108.11 661.559Q159.133 682.114 209.77 703.602L400.213 783.627C417.644 790.937 435.228 797.988 452.555 805.532C464.452 810.712 476.272 816.737 488.476 821.108C491.195 822.082 493.987 824.089 496.947 823.21L498.099 822.177C524.994 795.463 554.71 771.775 582.742 746.336C549.404 731.252 515.058 718.011 481.276 703.913L263.172 614.085L172.243 576.965Q160.067 571.947 147.814 567.122C143.27 565.333 138.183 563.787 133.898 561.501ZM948.138 674.471L519.859 875.756C519.832 885.651 518.935 967.724 520.508 970.176L521.687 970.115Q550.556 956.006 579.757 942.598L634 916.642L822.444 825.831L902.365 787.668L930.799 774.547C937.209 771.611 943.93 768.786 950.018 765.223C949.816 756.435 950.032 677.46 948.889 675.233C948.74 674.943 948.454 674.745 948.225 674.512C948.202 674.489 948.167 674.485 948.138 674.471ZM435.713 93.3978C436.029 98.5072 435.537 103.809 435.376 108.931Q434.987 120.568 435.09 132.21L435.732 237.455Q479.849 256.077 524.384 273.675L609.435 308.449L662.335 329.608C670.695 332.96 679.711 335.862 687.72 339.886C687.999 325.665 687.653 311.472 687.56 297.253C687.449 280.478 687.553 263.692 687.271 246.919C686.976 229.392 686.231 211.622 686.845 194.109C665.977 186.703 645.61 177.755 625.047 169.546L490.197 115.317C472.125 108.073 454.086 99.8141 435.713 93.3978ZM73.4215 705.786C72.0047 717.187 72.9907 735.234 72.9923 747.215C72.9939 759.298 71.9675 778.556 73.5534 789.989C108.608 803.917 143.101 819.331 177.785 834.151L315.521 892.452L438.374 943.849C461.645 953.572 484.937 963.068 507.958 973.386L507.843 941.561L507.658 902.039C507.629 895.039 507.893 887.904 507.505 880.921C504.348 882.237 501.23 883.61 497.921 884.505C480.864 878.195 464.049 870.561 447.317 863.418L364.09 827.96C350.198 822.097 334.76 813.736 320.539 809.489C320.364 814.902 321.874 833.154 317.548 836.249C315.782 837.512 313.385 836.807 311.543 836.206C299.7 832.345 288.1 826.28 276.593 821.441C263.221 815.817 249.263 811.014 236.134 804.895C234.405 804.089 231.797 803.102 230.889 801.382C227.831 795.594 229.936 777.673 229.793 770.333C193.209 755.751 157.029 739.993 120.636 724.926C105.005 718.455 89.3711 711.407 73.4215 705.786ZM384.238 231.034C368.86 238.975 352.759 245.925 336.967 253.015C330.686 255.835 324.122 258.409 318.023 261.589L684.258 412.464C698.27 418.332 712.436 423.807 726.413 429.761C747.982 420.324 768.958 409.517 790.263 399.501L832.922 379.001C840.825 375.217 848.861 371.686 856.592 367.556C839.237 360.192 821.338 353.588 804.215 345.765Q785.209 355.171 766 364.155C758.062 367.866 749.762 372.223 741.332 374.641C728.106 370.856 715.65 364.42 702.992 359.103Q675.063 347.517 646.95 336.384L437.205 252.122C430.326 249.374 388.312 231.277 384.238 231.034ZM976.058 616.976C960.816 623.687 945.864 631.058 930.747 638.045L811.669 693.586Q697.936 745.891 585.203 800.328Q556.026 814.71 526.56 828.492C521.469 830.842 516.372 833.625 511.127 835.579C509.03 836.361 505.779 835.931 504.143 837.175C503.261 841.238 502.779 865.841 504.22 869.165L504.783 869.262L977.486 646.851C977.675 641.278 979.327 620.511 976.965 616.993L976.058 616.976ZM46.5799 649.117C46.0112 659.635 47.0923 670.198 47.064 680.729C56.707 683.604 66.4898 688.524 75.7507 692.51Q98.822 702.516 122.085 712.067Q215.068 750.09 307.252 790.012L441.22 847.46Q457.621 854.495 474.1 861.342C479.956 863.8 486.615 866.043 492.04 869.338Q491.667 852.651 491.539 835.961Q269.741 740.918 46.5799 649.117ZM793.466 187.697C774.272 190.478 760.463 200.814 746.172 213.169L745.842 268.75C745.7 281.894 745.134 294.978 745.484 308.134C765.231 316.197 784.656 325.318 804.536 333.006C815.802 337.566 827.396 341.781 838.461 346.781L838.657 280.518C838.744 263.794 840.244 246.16 836.777 229.703C834.381 218.331 829.372 206.733 821.103 198.388C814.085 191.305 805.237 187.609 795.246 187.553C794.629 187.55 794.077 187.615 793.466 187.697ZM489.197 61.596C472.887 67.805 457.52 75.3545 441.816 82.8862L606.564 149.25C634.352 160.406 662.462 170.833 689.838 182.996C690.991 183.441 692.217 184.299 693.426 183.641C696.783 181.813 699.577 178.292 702.758 176.078C712.795 169.091 724.072 163.59 735.556 159.461Q652.616 125.841 569.311 93.1315C542.678 82.551 515.562 72.7859 489.197 61.596ZM698.971 198.586C698.293 235.133 698.897 271.922 699.182 308.487C699.275 320.526 700.135 332.765 699.815 344.774C704.433 346.565 731.993 358.82 733.519 358.894C734.479 335.856 733.846 312.548 733.873 289.484C733.902 263.983 734.526 238.275 733.71 212.789C721.923 208.564 710.703 202.896 698.971 198.586ZM390.27 73.8382C389.125 99.672 390.338 125.947 390.82 151.81C391.245 174.602 391.005 197.417 391.34 220.216C402.115 224.642 412.864 229.295 423.854 233.164C424.505 184.853 424.432 136.344 423.87 88.0322C413.24 82.5222 401.503 78.0211 390.27 73.8382ZM751.792 167.586C735.458 171.823 720.489 178.783 706.348 187.935C716.422 192.874 727.107 196.746 737.347 201.374C738.63 201.855 738.99 202.246 740.261 201.524C743.993 199.403 747.053 195.549 750.533 192.977C759.822 186.111 769.761 181.785 780.538 177.857C772.167 174.422 760.545 168.46 751.792 167.586ZM241.507 775.159C240.586 781.125 240.926 787.716 242.017 793.64Q274.98 808.03 308.376 821.387C308.404 815.782 308.563 810.145 308.362 804.543C286.522 793.845 263.267 785.993 241.507 775.159ZM442.377 44.1083L416.282 56.2716C410.624 58.9299 404.648 61.469 399.345 64.78C406.154 67.8736 421.333 74.8998 428.224 75.5571Q449.852 65.2368 471.62 55.2155C462.383 51.1521 452.262 46.1369 442.377 44.1083ZM745.694 321.671C745.038 329.144 745.324 336.766 745.298 344.264C745.279 349.722 744.942 355.34 745.27 360.778C754.656 356.476 763.741 351.292 773.179 347.179C778.157 344.797 783.281 342.552 788.164 339.989C774.536 333.098 759.978 327.035 745.694 321.671ZM173.049 541.423C164.797 545.618 156.361 549.656 148.316 554.23L155.09 556.852C158.96 558.305 162.819 559.844 166.751 561.115C168.172 554.464 171.775 548.276 173.642 541.714L173.049 541.423Z"/>
	<path fill="#AFAFAF" transform="scale(0.264473 0.264473)" d="M850.116 417.019C850.198 417.006 850.279 416.976 850.362 416.978C852.46 417.033 853.81 418.035 855.417 419.269C868.812 429.565 880.754 442.486 893.154 453.998L917.119 476.177C922.245 480.914 927.612 485.518 932.265 490.727C932.351 491.317 932.425 491.906 932.504 492.497C933.736 501.615 933.224 511.3 933.536 520.525C934.096 537.062 935 553.481 935.059 570.037C926.412 575.237 917 579.159 907.85 583.38C905.727 583.687 903.066 583.852 901.26 582.483C899.795 581.372 899.191 579.818 898.843 578.072C897.555 571.608 897.894 564.456 897.751 557.877Q897.448 542.566 896.881 527.263C896.702 521.179 896.834 514.873 896.115 508.834L896.044 508.287C879.677 491.479 862.073 475.702 845.055 459.546C838.841 453.648 831.848 447.997 826.197 441.599C824.415 439.581 823.162 437.548 822.044 435.099C821.998 433.96 822.295 433.145 822.832 432.16C826.813 424.858 842.606 419.292 850.116 417.019ZM849.234 431.16Q843.525 433.837 837.787 436.449C842.542 440.505 846.888 445.119 851.402 449.449L877.409 474.264Q885.798 482.241 894.324 490.071C898.534 493.899 903.011 497.55 906.824 501.777C909.883 513.5 909.238 539.304 909.602 552.703C909.723 557.146 909.153 563.585 910.747 567.64L911.638 567.665C915.398 566.016 919.129 564.513 923.025 563.213L921.892 519.858C921.682 512.605 921.841 505.088 921.127 497.875C912.937 489.585 853.259 431.513 849.234 431.16Z"/>
	<path fill="#AFAFAF" transform="scale(0.264473 0.264473)" d="M555.47 522.898C561.993 523.6 601.168 538.476 604.624 542.93C605.284 543.781 605.28 544.054 605.185 545.119C604.578 551.9 592.249 576.074 587.06 580.588C586.33 580.772 585.522 580.999 584.769 581.029C579.588 581.235 541.133 565.155 538.15 561.23C537.418 560.267 537.371 559.622 537.443 558.441C537.824 552.196 550.684 526.957 555.47 522.898ZM560.616 536.61C557.46 542.654 554.124 548.65 551.151 554.783C561.4 558.883 572.177 562.68 582.125 567.44C584.602 565.053 589.057 553.201 590.826 549.303C580.992 544.792 570.821 540.197 560.616 536.61Z"/>
	<path fill="#AFAFAF" transform="scale(0.264473 0.264473)" d="M425.507 570.973C432.392 571.373 469.47 586.109 474.451 590.816C475.349 591.664 475.553 592.33 475.497 593.564C475.26 598.845 460.254 626.304 456.518 629.826C456.172 629.885 455.822 629.934 455.472 629.956C450.09 630.294 411.84 613.833 407.601 610.094C406.934 608.722 406.881 607.662 407.07 606.175C407.866 599.912 420.845 574.717 425.507 570.973ZM430.633 584.815C427.252 591.115 423.72 597.382 420.61 603.819C431.075 607.466 441.067 612.282 451.452 616.105Q455.862 606.715 460.877 597.634C451.003 593.352 440.013 590.003 430.633 584.815Z"/>
	<path fill="#AFAFAF" transform="scale(0.264473 0.264473)" d="M338.951 535.884C347.537 537.271 376.881 549.6 384.731 554.068C387.64 555.724 388.017 556.976 388.876 560.152C386.817 566.999 375.389 591.354 369.851 594.708C369.394 594.648 368.936 594.59 368.484 594.501C360.534 592.937 323.034 578.27 319.845 573.374C319.568 571.808 319.567 570.628 319.943 569.071C321.368 563.182 331.23 544.061 335.078 539.201C336.206 537.775 337.397 536.809 338.951 535.884ZM343.223 549.724C339.725 555.682 336.67 561.761 333.416 567.844C344.324 572.048 354.986 576.879 365.873 581.079C369.459 576.176 371.547 568.593 374.685 563.038C364.26 558.645 353.393 554.647 343.223 549.724Z"/>
	<path fill="#AFAFAF" transform="scale(0.264473 0.264473)" d="M253.036 500.534L253.245 500.513C262.464 499.501 294.927 514.515 302.741 520.425C302.473 522.37 302.203 524.29 301.555 526.152C299.426 532.263 288.551 556.337 284.213 559.678C278.604 559.323 237.728 543.116 235.301 539.099C234.742 538.174 234.884 536.529 235.029 535.488C236.077 527.973 247.22 504.992 253.036 500.534ZM257.657 514.176C254.63 520.351 251.744 526.651 248.541 532.733C253.718 535.248 274.344 545.726 278.936 545.525C282.021 539.226 285.79 533.033 288.442 526.562L257.657 514.176Z"/>
	<path fill="#AFAFAF" fill-opacity="0.98823529" transform="scale(0.264473 0.264473)" d="M468.602 486.825C474.925 486.942 513.933 503.366 517.976 507.332C519.018 508.354 519.092 509.373 519.035 510.775C518.724 518.298 506.219 540.634 500.479 545.627C493.234 545.976 459.109 531.826 452.327 527.489C451.174 526.752 450.09 526.178 449.864 524.732C448.846 518.219 464 492.1 468.602 486.825ZM473.483 501.475C470.14 507.56 466.683 513.614 463.654 519.863C469.059 522.055 491.165 532.097 495.43 531.809Q500.551 522.978 505.824 514.236Q489.768 507.566 473.483 501.475Z"/>
	<path fill="#AFAFAF" transform="scale(0.264473 0.264473)" d="M380.667 451.78C385.714 451.779 427.539 469.261 431.788 472.862C432.211 474.166 432.02 475.177 431.708 476.477C430.16 482.934 419.859 502.821 415.741 508.109C414.899 509.192 413.854 509.939 412.697 510.653C412.442 510.645 412.187 510.642 411.933 510.628C405.769 510.304 372.879 496.368 366.685 493.035C364.661 491.946 362.85 490.821 361.329 489.064C361.038 488.135 360.948 487.416 361.109 486.461C362.226 479.844 375.465 455.732 380.667 451.78ZM384.527 465.901C381.5 471.78 378.442 477.639 375.696 483.657C380.175 485.526 406.397 497.319 408.183 496.79C411.486 491.219 414.744 485.594 417.274 479.621C406.755 474.737 395.711 469.03 384.527 465.901Z"/>
	<path fill="#AFAFAF" fill-opacity="0.98823529" transform="scale(0.264473 0.264473)" d="M292.599 414.926C294.234 414.913 295.768 414.962 297.368 415.333C304.596 417.009 338.121 429.585 342.035 434.02C342.751 434.832 342.868 435.083 342.837 436.147C342.675 441.871 328.448 469.484 323.963 473.778C323.118 473.965 322.289 474.071 321.423 474.041C315.31 473.829 278.5 458.928 274.814 454.356C274.064 453.425 273.99 452.319 274.131 451.157C275.039 443.671 286.872 419.777 292.599 414.926ZM297.646 428.212Q292.508 438.102 287.544 448.08C297.726 452.094 308.017 456.002 317.878 460.762Q323.589 450.932 328.116 440.503C318.466 435.603 307.956 431.501 297.646 428.212Z"/>
	<path fill="#AFAFAF" transform="scale(0.264473 0.264473)" d="M514.133 606.906C514.875 606.897 515.604 606.885 516.345 606.955C521.568 607.45 560.687 623.468 562.934 627.362C563.873 628.991 563.323 631.781 562.885 633.483C561.274 639.728 552.389 657.683 548.283 662.903C547.114 664.389 545.408 665.311 543.805 666.257C543.399 666.225 542.993 666.202 542.59 666.153C536.346 665.383 498.489 649.69 495.015 645.388C494.464 643.417 494.611 641.887 495.13 639.909C497.178 632.104 505.08 616.198 510.209 609.985C511.32 608.639 512.637 607.773 514.133 606.906ZM517.909 620.29C514.718 626.503 511.661 632.833 508.311 638.958C516.606 643.013 532.497 651.491 541.025 653.252L550.417 633.964C540.036 628.52 528.975 624.129 517.909 620.29Z"/>
	<path fill="#AFAFAF" transform="scale(0.264473 0.264473)" d="M336.963 305.956C339.805 305.837 342.211 306.531 344.874 307.427C354.602 310.698 364.034 315.061 373.488 319.045Q398.242 329.576 423.124 339.802L581.301 404.009Q614.621 417.816 648.155 431.096C652.383 432.727 667.667 437.235 668.902 441.238C670.406 446.115 651.14 490.162 647.004 497.314C645.572 499.789 644.049 500.273 641.407 500.978C631.638 499.138 619.721 493.045 610.308 489.216L551.573 465.428L401.728 405.116C373.75 393.943 345.397 383.473 317.616 371.837C314.095 370.362 310.83 368.929 307.734 366.673C308.133 364.346 308.565 362.067 309.368 359.84C313.044 349.656 318.33 339.855 323.059 330.123C326.374 323.3 329.462 315.737 333.665 309.425C334.574 308.06 335.714 307.003 336.963 305.956ZM341.534 319.253C335.698 333.153 328.857 346.801 322.106 360.28C381.209 384.857 440.95 408.008 500.358 431.843L588.84 467.173C604.913 473.612 620.877 480.497 637.096 486.541L638.221 486.847C640.134 485.368 653.421 452.425 655.34 447.685L433.552 357.358Q406.045 345.947 378.389 334.899C366.845 330.308 352.112 325.353 341.534 319.253Z"/>
</svg>
