<?xml version="1.0" encoding="utf-8" ?>
<svg xmlns="http://www.w3.org/2000/svg" xmlns:xlink="http://www.w3.org/1999/xlink" width="507" height="507">
	<path fill="#AFAFAF" transform="scale(0.496035 0.496035)" d="M365.731 30.6531C382.69 30.985 406.035 40.1915 422.85 44.577C435.647 47.9147 449.212 49.9443 461.636 54.4737C466.171 56.127 470.406 58.3823 474.14 61.4603C478.239 64.8402 481.446 69.0272 483.355 74.0201C486.808 83.0492 487.093 93.441 488.609 102.927C490.846 116.934 493.695 130.994 495.147 145.104C505.472 151.834 543.569 174.859 548.88 182.699C549.723 183.944 549.891 184.743 549.564 186.19C545.879 189.366 503.562 197.671 494.08 199.788C494.129 223.04 495.153 246.328 495.96 269.563C496.447 283.602 497.765 297.482 496.226 311.512Q495.852 315.167 495.189 318.78Q494.525 322.393 493.575 325.942Q492.625 329.491 491.396 332.952Q490.167 336.414 488.665 339.767C478.441 362.124 460.813 372.993 438.536 381.219C444.788 384.581 451.839 390.414 457.899 392.94C464.224 395.578 471.656 396.433 478.264 398.338Q496.232 403.69 514.253 408.861C526.21 412.333 538.214 415.614 549.721 420.424C559.231 415.363 568.446 409.525 577.705 404.011Q598.076 392.046 618.25 379.752C629.432 372.882 640.524 365.214 652.364 359.55C663.574 363.987 674.255 371.181 684.876 376.93Q710.894 390.712 737.111 404.113L845.406 460.358C867.366 471.813 889.658 482.831 911.009 495.388C912.918 506.785 911.374 524.694 911.428 536.973Q911.711 595.692 908.721 654.335C907.819 671.95 906.183 689.512 905.181 707.117C903.535 736.063 904.513 765.073 900.216 793.836C893.257 799.859 884.515 804.795 876.786 809.79L836.33 835.933L693.508 928.929L635.43 966.522C625.42 973.131 615.765 980.387 605.53 986.637C602.489 988.494 597.917 991.644 594.328 992.095C592.229 992.359 588.604 990.248 586.715 989.301C567.111 979.478 548.023 968.377 528.726 957.954L416.952 898.332C404.244 891.652 391.785 884.706 378.746 878.66C373.808 876.369 368.72 873.787 363.459 872.352C350.539 868.828 323.501 870.993 309.365 871.116C272.598 871.437 198.343 856.951 164.991 840.531Q161.39 838.785 157.947 836.746Q154.504 834.707 151.242 832.388Q147.98 830.07 144.923 827.488Q141.865 824.906 139.033 822.079C119.135 802.399 110.506 775.064 110.492 747.503C110.484 732.043 112.688 716.395 114.477 701.052Q116.859 680.637 120.132 660.346Q123.406 640.055 127.567 619.927Q131.727 599.8 136.765 579.873Q141.803 559.947 147.71 540.261C152.762 522.972 157.524 505.391 165.551 489.186C171.184 477.813 178.726 467.998 188.023 459.371C204.453 444.125 233.99 429.75 254.255 418.767C261.024 415.099 268.383 411.759 274.624 407.263C281.126 402.579 285.402 394.419 290.826 388.514C295.937 382.948 301.815 378.166 307.155 372.828C297.763 367.047 293.129 359.155 285.187 352.854C283.105 351.202 280.516 349.951 278.22 348.612C261.141 338.644 254.611 321.414 249.804 303.188C242.862 297.525 237.717 289.607 236.385 280.647C235.002 271.348 237.985 261.858 237.588 252.442C237.086 240.507 236.06 228.578 235.412 216.647L233.285 169.931C232.573 155.574 230.778 140.14 232.369 125.855C233.279 117.693 236.016 110.124 240.966 103.539C243.96 99.5573 247.495 96.42 251.576 93.5932C257.368 89.5808 263.707 86.1853 269.798 82.6466L306.636 61.479C321.922 52.5336 336.863 41.7984 352.859 34.212C357.024 32.2365 361.19 31.3005 365.731 30.6531ZM902.382 508.461C890.54 515.363 879.109 523.02 867.585 530.438L827.355 556.188C814.712 564.392 802.292 572.766 789.056 580.006L788.881 621.58C788.851 630.749 789.061 640.093 788.308 649.232C777.183 659.239 764.125 667.076 751.95 675.727C743.188 681.955 734.247 689.765 724.712 694.648C723.373 695.333 722.109 695.696 720.598 695.57C719.409 695.47 718.21 694.911 717.517 693.922C714.015 688.929 716.866 637.227 716.016 626.853C696.494 638.241 678.092 651.195 658.942 663.153L621.12 686.628C614.784 690.559 608.193 694.258 602.083 698.524L600.449 849.25C600.091 870.615 600.776 892.249 599.491 913.556C598.939 935.779 598.475 957.978 598.764 980.198C613.547 971.507 627.691 961.998 642.013 952.591L688.036 922.555L801.964 848.315C821.725 835.179 841.746 822.501 861.66 809.603L882.094 796.399C885.779 794.021 889.482 791.285 893.383 789.287C894.78 762.769 895.168 736.226 896.608 709.723C897.445 694.3 899.211 678.938 900.082 663.519Q902.121 619.999 902.902 576.438Q903.44 553.726 903.407 531.007C903.399 523.745 903.796 516.154 902.858 508.942L902.382 508.461ZM334.196 563.067C333.783 573.154 335.096 583.668 335.653 593.767L338.811 651.701L342.632 722.502C343.517 740.47 344.063 758.404 345.571 776.337C348.839 776.811 351.891 777.605 355.055 778.544C367.657 770.016 391.714 755.333 407.108 757.944C410.665 758.547 413.796 760.219 415.857 763.241C418.37 766.926 419.034 771.787 418.158 776.099C417.281 780.421 415.021 784.1 412.815 787.844C421.806 789.129 430.932 789.49 440 789.816C448.845 790.134 459.344 789.624 467.779 792.494C471.095 793.622 473.704 795.432 475.867 798.201C484.553 809.319 485.7 825.963 483.731 839.357C482.608 847.005 479.111 847.907 476.895 854.28C474.004 862.591 470.894 867.455 462.765 871.363C448.094 878.416 425.298 882.942 409.133 884.092C425.029 892.04 440.561 900.813 456.216 909.229L516.347 941.453C534.01 951.133 551.594 961.34 569.666 970.226L590.797 981.723C589.892 961.603 591.34 940.131 591.511 919.876L593.54 758.438C593.681 739.074 595.107 719.299 593.94 699.995C579.238 693.056 565.148 685.103 550.7 677.684C533.386 668.793 515.642 660.319 498.736 650.696C498.307 662.249 501.164 708.957 496.261 715.699C494.694 716.511 492.559 715.897 490.977 715.365C483.569 712.872 476.498 707.891 469.603 704.199C457.997 697.985 445.834 692.307 434.593 685.477C432.567 684.246 430.587 682.934 428.939 681.215C427.005 670.843 428.142 659.807 428.325 649.303C428.531 637.568 428.428 625.814 428.442 614.077L373.283 583.896C360.586 576.883 347.481 568.855 334.196 563.067ZM221.102 447.454C211.613 452.791 201.949 458.041 193.775 465.327Q191.134 467.717 188.69 470.307Q186.246 472.898 184.013 475.672Q181.78 478.447 179.772 481.389Q177.764 484.33 175.994 487.421C165.497 505.914 156.537 539.056 150.604 560.246Q145.485 578.506 141.122 596.962Q136.759 615.418 133.16 634.037Q129.561 652.657 126.731 671.409Q123.901 690.161 121.846 709.014C120.22 722.916 117.721 737.57 118.468 751.568C119.339 767.914 123.525 783.884 131.592 798.183C146.344 824.328 172.655 836.922 200.513 844.522C235.007 853.932 275.954 862.229 311.798 862.696C308.051 834.084 307.7 803.749 316.537 775.972C307.086 772.016 297.511 768.349 288.13 764.232C266.972 755.349 242.162 740.121 219.31 737.394C215.115 736.894 210.908 737.019 206.786 737.981C202.544 738.97 189.833 746.023 187.422 741.061C187.492 738.901 188.245 737.174 189.791 735.627C195.3 730.116 208.325 728.652 215.735 728.921C221.398 729.126 227.594 730.116 233.046 731.703Q241.677 694.306 249.519 656.736C251.35 648.094 251.935 638.795 254.271 630.364C254.913 628.048 255.833 624.809 258.048 623.505C258.777 623.076 259.163 623.27 259.954 623.35C261.305 624.22 261.99 625.004 262.892 626.326C263.902 635.407 258.215 656.35 256.141 666.091C251.293 688.853 245.967 711.719 241.615 734.575L261.813 742.785C261.571 727.319 263.146 711.487 263.961 696.017C265.602 664.884 268.55 633.386 267.808 602.219Q267.609 595.235 267.121 588.266Q266.633 581.297 265.856 574.354Q265.079 567.411 264.015 560.506Q262.951 553.601 261.601 546.746Q260.252 539.891 258.619 533.099Q256.986 526.306 255.073 519.586Q253.16 512.867 250.97 506.233Q248.779 499.599 246.316 493.061C241.248 479.734 232.078 458.233 222.139 448.243C221.438 447.538 221.739 447.717 221.102 447.454ZM458.028 483.449Q417.088 506.8 377.16 531.844C364.47 539.68 351.586 547.314 339.124 555.505C374.097 576.068 410.474 594.408 446.453 613.118L595.34 691.283C596.44 691.525 596.617 691.554 597.668 691.037C601.845 688.982 605.886 685.997 609.862 683.512L635.825 667.233L712.467 619.037C708.435 616.468 704.389 613.954 700.196 611.652C668.759 594.394 636.731 578.183 605.064 561.354C591.252 554.013 461.281 483.682 458.028 483.449ZM652.358 369.991C612.632 391.148 574.901 416.189 535.823 438.555L742.035 548.002C756.381 555.765 771.015 563.029 785.232 571.02C786.016 571.384 786.526 571.913 787.386 571.595C792.998 569.524 808.712 557.587 815.014 553.597L873.322 516.763C882.037 511.168 891.325 505.832 899.61 499.628C845.932 468.185 789.431 441.332 734.312 412.521C724.676 407.484 657.191 370.431 652.358 369.991ZM483.698 202.183C474.566 203.493 465.56 205.649 456.546 207.589L419.256 215.54C409.362 217.668 399.612 220.078 389.485 220.838C369.494 222.34 346.141 215.023 326.716 210.692C315.33 208.153 303.834 206.174 292.484 203.456C292.042 218.952 293.482 238.599 294.57 254.26C295.15 262.6 296.717 271.91 295.741 280.192C295.387 283.195 294.572 286.174 292.361 288.358C290.098 290.593 287.565 291.361 284.432 291.257C280.917 291.141 277.961 290.178 275.563 287.505C268.538 279.674 271.526 256.452 262.186 255.99C258.509 255.808 252.288 258.773 249.641 261.211C246.046 264.523 244.489 269.765 244.515 274.533C244.555 281.788 247.836 289.494 253.17 294.412C256.948 297.895 261.864 300.035 267.05 299.691C270.797 299.442 274.47 298.229 278.143 297.523C279.561 298.354 280.23 298.627 280.706 300.253C282.233 305.472 281.061 311.74 281.872 317.205C285.085 338.868 296.954 356.864 315.482 368.399C346.042 387.423 387.014 385.442 420.876 377.376C443.475 371.992 464.578 363.538 477.268 342.911C482.991 333.608 486.517 322.894 487.968 312.097Q488.919 304.637 488.863 297.117C488.772 275.066 487.093 252.894 486.387 230.845C486.24 226.251 486.478 206.26 485.669 203.295C485.558 202.888 485.45 202.689 485.274 202.284C484.681 202.174 484.3 202.072 483.698 202.183ZM367.667 38.6443C362.858 39.5062 358.834 41.189 354.484 43.3762C347.281 46.9983 340.369 51.3582 333.42 55.4437L299.358 75.4847Q287.251 82.6492 275.052 89.6552C268.279 93.518 261.339 97.1996 254.924 101.642C252.129 103.577 249.848 105.792 247.881 108.573C243.99 114.075 241.571 120.576 240.574 127.22C238.908 138.321 240.799 150.416 241.384 161.622C241.981 173.069 242.153 184.615 243.103 196.031C254.805 195.737 267.666 195.589 279.164 193.47C287.028 192.021 294.578 189.122 302.274 187.006C314.918 183.53 327.816 180.405 340.61 177.534L444.507 153.827C458.501 150.666 472.861 148.75 486.645 144.756C485.81 132.595 483.171 120.413 481.294 108.372C479.742 98.4124 479.351 87.7398 475.961 78.2153C474.579 74.3318 472.695 71.2627 469.502 68.5822C466.052 65.6857 461.921 63.8086 457.704 62.3228C442.814 57.0771 427.129 54.4401 411.899 50.3856C399.043 46.9633 380.222 40.0842 367.667 38.6443ZM277.665 416.512C267.778 422.118 257.477 426.931 247.426 432.229C241.127 435.55 235.08 439.403 228.766 442.654C243.658 462.342 253.285 485.327 260.523 508.81Q262.528 515.379 264.283 522.019Q266.038 528.659 267.541 535.36Q269.043 542.062 270.29 548.816Q271.537 555.57 272.528 562.366Q273.518 569.162 274.25 575.991Q274.983 582.82 275.456 589.672Q275.929 596.524 276.142 603.388Q276.355 610.253 276.308 617.121C275.777 660.281 269.445 703.338 270.011 746.517C291.888 756.853 313.883 765.999 337.077 773.009C336.952 770.387 336.893 767.739 336.691 765.124Q332.625 696.8 329.296 628.437C328.061 603.609 325.737 578.45 325.948 553.615Q340.176 544.445 354.517 535.453C361.168 531.259 368.048 526.51 375.193 523.217C370.731 522.241 360.36 521.093 357.638 517.231C356.469 515.574 356.426 513.893 356.872 511.995C358.284 505.977 361.592 500.1 363.545 494.18C347.46 496.195 330.914 500.751 314.674 500.334C313.13 498.866 311.819 497.45 310.724 495.612C306.971 489.313 304.422 481.98 301.482 475.261C293.334 456.635 285.644 437.984 278.914 418.787C278.612 417.925 278.558 416.809 277.665 416.512ZM526.275 444.008C513.555 450.336 501.323 457.884 489.063 465.06C481.854 469.28 474.045 473.246 467.243 478.077C479.889 485.394 493.192 491.741 506.115 498.571L588.189 542.206L672.19 586.619C688.455 595.32 704.575 605.147 721.303 612.857C725.801 611.995 770.9 582.608 778.459 577.505C758.46 565.656 737.703 555.06 717.183 544.146L604.742 484.909L558.501 460.548C552.452 457.325 531.275 444.868 526.275 444.008ZM400.707 766.654C384.019 769.306 368.988 779.388 354.926 788.225C354.961 794.018 354.309 799.78 354.094 805.566C353.55 820.137 353.486 834.849 355.46 849.316C356.032 853.509 356.468 857.898 358.394 861.722C362.734 863.918 367.764 865.183 372.372 866.765C400.582 876.452 423.576 876.233 451.817 866.904C459.35 864.415 464.332 861.352 468.892 854.745C461.401 856.299 423.449 865.933 418.736 862.961C417.498 862.181 417.483 861.823 417.163 860.49C417.526 858.854 417.867 857.856 419.392 856.897C422.725 854.8 429.215 854.368 433.059 853.679C446.283 851.311 462.509 849.993 474.507 844.304C475.191 842.258 476.078 840.243 475.95 838.058C475.331 837.052 475.186 836.681 473.898 836.49C472.686 836.31 470.742 836.876 469.519 837.121C461.376 838.055 422.139 846.392 417.968 843.505C417.039 842.862 416.496 841.753 416.452 840.637C416.409 839.539 416.912 838.177 417.756 837.446C421.827 833.92 467.181 830.689 476.859 827.384C476.536 823.844 476.309 820.289 475.502 816.818C462.295 819.265 449.183 820.739 435.838 822.168C430.681 822.72 425.199 823.873 420.024 823.556C418.192 823.444 416.999 823.089 415.431 822.15C414.601 820.873 414.535 820.639 414.468 819.115C415.129 817.52 416.075 816.813 417.613 816.151C421.753 814.369 426.829 814.416 431.286 814.057C440.67 813.3 464.586 812.493 471.927 808.413C472.188 806.918 471.228 805.774 470.402 804.526C468.09 801.034 465.852 800.07 461.862 799.383C446.678 796.77 430.569 797.883 415.169 797.184C410.099 796.954 404.758 796.834 399.794 795.767C397.499 795.274 395.712 794.573 394.014 792.943C393.562 791.704 393.335 791.363 393.895 790.073C396.68 783.655 412.772 782.93 409.758 771.025C409.415 769.673 408.603 768.222 407.36 767.503C405.475 766.414 402.807 766.221 400.707 766.654ZM318.093 379.886C317.978 389.514 317.859 399.235 318.653 408.84L356.695 444.403C363.065 450.407 369.22 456.686 375.743 462.521C383.097 469.1 390.719 475.429 398.242 481.816C401.659 484.718 405.382 487.514 408.543 490.688C410.93 483.007 413.943 475.567 416.47 467.942C420.321 456.568 432.088 426.42 431.328 415.641C430.607 405.413 427.216 395.25 425.649 385.096C390.434 393.147 351.758 395.021 318.093 379.886ZM491.019 153.144Q425.516 167.123 360.165 181.805C340.327 186.401 319.617 190.139 300.317 196.612C317.551 199.532 334.723 203.559 351.651 207.876C363.096 210.235 374.99 212.9 386.732 212.323C400.06 211.667 413.045 208.457 426.032 205.618L471.798 195.538L515.259 186.382C522.085 184.943 529.042 183.905 535.771 182.057C530.096 178.245 494.289 154.03 491.019 153.144ZM309.509 383.048C299.859 390.866 291.18 399.473 284.817 410.24C295.22 438.05 305.907 465.309 318.784 492.114C328.378 490.326 364.785 483.621 372.346 486.245C373.45 487.495 373.651 488.701 373.549 490.353C373.1 497.623 368.373 505.971 365.51 512.585C369.838 513.654 375.145 514.901 379.609 514.956L385.714 516.021C391.307 511.832 397.445 508.538 403.326 504.787L404.355 497.673C377.808 477.858 354.849 453.783 330.421 431.502Q321.894 423.761 313.211 416.195C309.054 412.547 303.893 408.708 300.67 404.201C300.501 402.737 300.362 402.081 301.109 400.738C302.567 399.839 303.8 399.981 305.406 400.385C307.241 400.845 308.611 401.744 310.181 402.75C310.286 402.817 310.395 402.879 310.503 402.944C310.58 398.537 311.619 386.383 309.509 383.048ZM780.404 586.534C761.357 598.037 742.782 610.024 724.092 622.079C724.674 627.149 724.146 632.513 724.073 637.628C723.868 651.954 722.844 670.838 724.74 684.814C743.233 671.435 762.068 658.529 780.52 645.105C781.152 627.194 782.111 604.096 780.404 586.534ZM436.62 618.083Q435.969 647.076 436.273 676.075C454.208 685.707 471.547 696.187 490.153 704.57C490.953 685.092 490.197 665.526 490.556 646.031L454.988 627.534C448.916 624.387 442.852 620.872 436.62 618.083ZM325.58 777.769C316.523 803.962 314.911 834.404 320.347 861.614C328.749 861.896 337.226 862.603 345.625 862.578L348.653 862.687L349.169 862.169C348.488 855.899 347.14 849.748 346.592 843.465C344.891 823.939 345.899 804.779 348.109 785.35C340.634 782.754 332.932 780.683 325.58 777.769ZM281.296 202.232Q262.378 203.246 243.477 204.555C243.617 220.568 245.113 236.4 246.189 252.347C252.728 249.141 260.437 245.628 267.777 248.354C271.023 249.559 273.416 251.822 275.285 254.684C275.359 254.843 275.435 255.001 275.507 255.162C278.702 262.302 275.706 279.104 284.013 282.345C284.714 282.619 285.371 282.581 286.104 282.535C287.41 281.502 287.705 280.931 287.849 279.259C288.384 273.068 287.473 266.292 287.037 260.094C286.187 248.007 285.173 235.912 284.639 223.805C284.46 219.758 284.72 204.873 283.756 202.657C282.857 202.116 282.326 202.17 281.296 202.232ZM448.352 398.855C445.861 412.539 440.67 426.315 436.411 439.57C430.235 458.789 424.32 478.388 416.675 497.077C421.936 493.824 427.246 490.422 432.843 487.779C434.162 481.569 434.954 465.449 440.541 462.079C444.141 459.909 465.026 462.959 470.635 462.949C466.75 445.112 465.753 425.851 461.373 408.44Q454.899 403.598 448.352 398.855ZM469.97 405.204C470.004 411.008 471.324 417.032 472.226 422.771Q475.216 441.824 478.877 460.76Q498.81 449.892 518.158 438.014C525.513 433.846 532.761 429.178 540.238 425.276Q524.671 421.242 509.273 416.606C496.293 412.619 483.233 408.137 469.97 405.204ZM259.012 306.509C262.135 317 268.408 332.698 278.632 338.318C276.031 328.297 273.966 318.433 272.854 308.126C268.537 307.885 263.103 308.028 259.012 306.509ZM445.785 470.452C444.651 474.329 443.716 478.171 442.945 482.136L451.223 476.876L460.331 471.8C455.483 470.843 450.727 470.392 445.785 470.452ZM434.489 388.857C434.951 392.553 435.243 400.888 437.778 403.497C438.709 402.956 438.614 402.742 439.025 401.792C440.013 398.936 440.91 395.975 442.09 393.197C439.61 391.668 437.165 390.022 434.489 388.857Z"/>
	<path fill="#AFAFAF" fill-opacity="0.98823529" transform="scale(0.496035 0.496035)" d="M414.881 296.53C415.591 296.535 416.292 296.531 416.997 296.621C418.473 296.809 419.892 297.569 420.643 298.91C421.374 300.215 421.194 300.559 420.846 301.925C416.42 307.012 406.374 307.542 400.168 308.068C399.896 308.056 399.624 308.051 399.353 308.032C397.627 307.916 395.493 306.925 394.51 305.45C393.794 304.376 393.883 303.707 394.022 302.525C397.163 298.176 404.807 299.063 409.576 298.157C411.379 297.814 413.153 297.139 414.881 296.53Z"/>
	<path fill="#AFAFAF" fill-opacity="0.98823529" transform="scale(0.496035 0.496035)" d="M345.279 224.653C347.313 224.472 349.29 224.521 351.321 224.679C355.283 224.987 362.87 226.085 365.399 229.328C366.272 230.449 366.809 231.591 366.617 233.026C363.473 236.872 353.834 234.163 349.268 234.068C345.207 233.983 341.661 234.326 337.819 235.705L337.135 235.956C333.595 237.84 330.327 240.755 326.719 242.33C324.94 243.106 323.812 243.092 322.041 242.342C321.517 241.796 321.271 241.421 321.138 240.64C320.796 238.624 321.812 236.597 322.963 235.011C327.76 228.407 337.584 225.682 345.279 224.653Z"/>
	<path fill="#AFAFAF" transform="scale(0.496035 0.496035)" d="M448.338 214.692C454.232 214.176 463.528 215.678 468.574 218.965C470.828 220.434 472.037 221.933 472.544 224.57C472.353 225.302 472.323 226.044 471.772 226.598C467.998 230.399 458.718 224.953 454.366 223.846C452.362 223.337 450.184 223.342 448.125 223.282C441.957 224.316 437.216 227.308 431.375 229.086C429.8 229.565 427.962 229.889 426.488 228.953C425.541 228.353 425.178 227.679 425.076 226.571C424.942 225.1 425.498 223.878 426.36 222.736C430.744 216.933 441.581 215.419 448.338 214.692Z"/>
	<path fill="#AFAFAF" transform="scale(0.496035 0.496035)" d="M446.241 246.031C448.664 245.874 451.113 245.705 453.477 246.386C457.045 247.415 460.168 249.911 461.814 253.253C463.203 256.071 463.51 259.435 462.462 262.416C461.09 266.317 458.231 268.268 454.659 269.955C451.934 270.673 448.969 270.823 446.27 269.924Q445.651 269.723 445.055 269.46Q444.459 269.197 443.894 268.875Q443.329 268.552 442.799 268.173Q442.27 267.794 441.782 267.363Q441.294 266.932 440.853 266.453Q440.412 265.974 440.022 265.453Q439.632 264.931 439.298 264.373Q438.963 263.814 438.688 263.224C437.24 260.179 436.977 256.538 438.187 253.369C439.682 249.452 442.544 247.633 446.241 246.031Z"/>
	<path fill="#AFAFAF" transform="scale(0.496035 0.496035)" d="M347.537 257.54C349.854 257.502 352.032 257.661 354.194 258.579C357.052 259.792 359.164 262.146 360.247 265.031C361.548 268.496 361.448 272.632 359.803 275.966C357.754 280.118 354.715 281.725 350.592 283.25C347.771 283.278 345.104 282.86 342.612 281.462Q342.062 281.157 341.546 280.799Q341.03 280.44 340.552 280.031Q340.075 279.623 339.641 279.168Q339.206 278.714 338.82 278.218Q338.434 277.722 338.099 277.19Q337.765 276.658 337.485 276.095Q337.206 275.532 336.985 274.944Q336.763 274.356 336.602 273.748C335.705 270.383 336.147 266.645 337.996 263.673C340.309 259.955 343.451 258.598 347.537 257.54Z"/>
	<path fill="#AFAFAF" fill-opacity="0.98823529" transform="scale(0.496035 0.496035)" d="M437.045 312.68C438.46 312.502 439.158 312.444 440.535 312.968C441.578 313.893 441.95 314.807 442.133 316.167C443.301 324.836 436.591 337.522 431.506 344.224C425.513 352.123 417.385 358.204 407.354 359.462C397.538 360.692 389.562 357.548 381.876 351.65C375.543 346.418 369.586 336.25 367.924 328.236C367.556 326.464 367.435 324.537 368.574 323.018C369.213 322.167 370.019 321.771 371.014 321.437C377.574 319.234 390.202 320.55 397.739 319.55C410.932 317.8 423.879 314.515 437.045 312.68ZM429.522 323.177C411.865 326.052 394.857 328.543 376.962 329.198C379.437 335.589 382.171 340.217 387.157 344.954C394.093 349.287 401.227 352.203 409.584 350.157C417.368 348.252 423.561 342.973 427.567 336.177C429.325 333.194 432.767 327.018 432.21 323.581C431.099 322.852 430.867 323.04 429.522 323.177Z"/>
</svg>
