<?xml version="1.0" encoding="utf-8" ?>
<svg xmlns="http://www.w3.org/2000/svg" xmlns:xlink="http://www.w3.org/1999/xlink" width="1024" height="1024">
	<path fill="#C5C5C5" transform="scale(2 2)" d="M342.877 437.491L188.009 437.491C174.873 437.493 156.536 440.813 151.4 424.729C149.9 420.03 149.687 406.299 149.283 400.692L141.306 292.238C139.793 271.869 137.461 258.623 148.588 239.892C172.444 199.734 176.038 139.241 168.369 94.1846C165.769 78.9072 167.318 81.5799 181.703 78.216C188.088 76.7229 194.468 75.1781 200.879 73.8018C205.956 73.3307 206.952 77.8973 209.414 81.5194C231.807 114.459 283.409 112.66 304.234 78.4868C306.522 74.7327 307.477 73.5653 311.956 74.2316C315.871 74.8139 340.538 80.237 342.4 81.8499C345.795 84.7916 343.394 91.5945 342.807 95.3206C335.511 141.629 339.342 186.078 357.943 229.522C362.774 240.803 370.339 250.126 371.883 262.711C373.011 271.899 371.171 286.582 370.497 296.288L362.884 399.014C361.739 414.885 364.242 435.094 342.877 437.491ZM196.783 86.1605C190.904 87.5181 185.027 88.9482 179.109 90.1211C179.828 98.1205 181.379 106.064 182.155 114.08C185.562 149.263 181.818 181.09 171.462 214.515C170.131 218.813 168.082 223.112 167.55 227.583L167.769 227.975C173.311 237.78 179.225 245.187 184.495 256.054C207.079 302.628 202.972 364.041 171.591 405.83C168.548 409.883 164.058 413.908 161.618 417.496C161.52 423.139 164.116 426.491 170.034 426.472L324.694 426.329C331.227 426.336 351.009 429.497 350.263 418.085C350.198 417.101 338.316 403.243 336.669 400.752C334.844 397.992 333.255 394.914 331.125 392.387C329.436 388.2 327.306 384.22 325.513 380.079C309.155 342.303 309.578 297.927 325.648 260.078C329.956 249.932 337.472 235.158 345.483 227.583C331.268 192.002 326.325 154.152 329.347 115.991C330.035 107.31 331.42 98.76 332.364 90.1211C326.74 88.7024 320.891 86.8625 315.141 86.1605C310.392 113.684 304.339 151.159 279.686 168.423C258.485 183.271 232.123 174.049 218.353 153.903C206.461 136.505 201.544 114.589 198.666 93.9507C198.501 92.7694 197.924 86.6 197.385 86.0641L196.783 86.1605ZM210.58 99.4928C215.381 124.978 227.297 170.759 262.284 163.925C276.393 161.169 284.939 148.993 290.608 136.817C295.862 124.824 298.991 112.292 301.521 99.4928C278.45 117.864 243.83 122.55 218.872 105.499C216.502 103.88 213.056 100.404 210.58 99.4928ZM350.121 239.607C344.654 245.752 340.611 253.514 337.327 261.01C320.84 298.637 319.159 345.85 338.815 382.72C340.769 386.385 342.79 389.943 345.483 393.125C347.025 396.586 349.577 399.458 351.907 402.409C351.805 397.128 352.39 391.743 352.788 386.477L360.605 281.165C361.314 272.297 361.985 264.685 358.957 256.187C357.651 252.524 353.132 241.62 350.121 239.607ZM161.618 239.607C147.296 264.995 150.34 266.433 152.549 295.649L159.391 388.433C159.73 393.082 160.279 397.751 159.909 402.409C162.845 399.313 165.3 396.004 167.55 392.387C194.709 346.269 195.156 292.066 166.286 245.96C165.099 244.064 163.424 240.835 161.618 239.607Z"/>
	<path fill="#C5C5C5" transform="scale(2 2)" d="M229.055 201.224C219.207 198.968 221.133 190.466 227.281 190.287C232.106 190.146 238.734 191.898 243.976 192.359C257.994 193.593 270.494 192.338 284.255 189.826C290.378 189.041 293.834 196.087 288.548 199.467C278.56 205.853 240.254 203.573 229.055 201.224Z"/>
</svg>
