<?xml version="1.0" encoding="utf-8" ?>
<svg xmlns="http://www.w3.org/2000/svg" xmlns:xlink="http://www.w3.org/1999/xlink" width="445" height="445">
	<path fill="#AFAFAF" transform="scale(0.435263 0.435263)" d="M400.112 26.7198C412.575 25.8555 427.315 30.749 438.142 36.5823C457.228 46.8657 465.456 60.9553 471.506 81.1289C498.613 75.7327 525.516 69.2248 552.486 63.2049C563.651 60.7129 574.311 58.1986 584.56 64.817C597.627 73.2553 599.208 93.1488 602.19 107.077C617.238 102.854 632.417 99.1272 647.511 95.08C659.122 91.967 672.087 87.1108 684.112 86.4867C690.59 86.1506 696.667 87.1972 702.372 90.4256C708.492 93.8885 713.725 100.118 716.143 106.734C718.215 112.403 719.299 118.605 720.643 124.48L726.407 148.903L747.779 237.303Q778.363 357.337 811.194 476.777Q843.156 593.751 878.79 709.659Q887.045 737.697 896.105 765.485C899.995 777.071 905.107 788.588 908.248 800.37C911.07 810.957 909.917 820.808 904.274 830.286C901.721 834.574 898.087 838.543 893.727 841.024C886.443 845.169 877.427 847.67 869.543 850.47Q846.131 858.849 822.526 866.667Q710.574 904.573 596.381 935.066C571.246 942.855 545.441 949.191 519.939 955.706Q454.187 972.701 387.792 986.979L347.115 995.673C338.45 997.518 329.482 999.93 320.631 1000.54C315.267 1000.91 310.158 999.857 305.37 997.432C301.368 995.404 297.325 992.124 294.826 988.392C288.333 978.698 280.214 948.576 276.207 935.742Q252.265 860.525 231.052 784.494Q209.838 708.463 191.381 631.716Q172.923 554.969 157.244 477.606Q141.566 400.244 128.688 322.366L119.814 271.446C117.754 259.66 114.666 246.967 114.928 234.98C115.039 229.94 116.077 224.636 118.516 220.188Q119.046 219.217 119.649 218.29Q120.252 217.363 120.924 216.485Q121.596 215.607 122.334 214.783Q123.071 213.959 123.87 213.194Q124.668 212.429 125.523 211.727Q126.378 211.026 127.284 210.392Q128.19 209.758 129.142 209.195Q130.094 208.632 131.086 208.144C143.03 202.258 158.136 200.635 171.026 197.626C191.622 192.819 212.391 187.881 232.747 182.173C230.63 171.012 227.376 159.406 232.404 148.529C234.384 144.245 237.848 139.861 242.145 137.729C250.559 133.554 261.271 132.426 270.399 130.478Q292.391 125.71 314.312 120.63C324.075 118.395 334.298 116.586 343.696 113.102Q342.357 106.404 341.515 99.625C339.495 82.0761 342.139 64.9929 353.419 50.8869C364.689 36.7919 382.414 28.6232 400.112 26.7198ZM686.778 108.668C669.678 111.678 652.694 116.507 635.882 120.843C622.851 124.204 609.44 127.031 596.82 131.743C599.876 140.753 603.67 150.152 604.518 159.693C601.49 165.577 598.596 168.695 592.072 170.741C574.467 176.265 555.979 179.482 538.046 183.87L425.838 211.459L327.7 235.657L298.621 242.856C292.9 244.295 287.079 246.109 281.266 247.053C277.13 247.725 272.458 247.255 268.715 245.284C261.836 241.661 258.846 233.954 256.85 226.894C254.481 218.514 252.853 209.941 250.071 201.674L179.504 217.596C169.497 219.855 158.788 221.492 149.008 224.49C146.47 225.268 141.49 226.873 139.889 228.949C138.45 230.815 143.179 248.06 143.874 250.785Q156.086 297.482 169.596 343.82L188.428 411.933Q212.253 499.102 239.216 585.352C245.105 604.441 250.496 623.629 256.819 642.586C272.945 690.926 288.557 739.384 305.811 787.342Q315.192 813.437 325 839.374C327.783 846.831 332.36 856.856 334.015 864.354L355.801 921.426Q472.738 895.688 588.27 864.237Q661.256 845.445 733.484 823.921Q805.712 802.397 877.079 778.171C872.189 761.554 866.648 745.113 861.513 728.568C849.253 689.063 837.041 649.452 825.42 609.756Q759.465 382.603 704.431 152.562C702.187 142.992 698.337 120.613 694.105 113.094C693.286 111.639 691.848 110.409 690.385 109.629C689.163 108.978 688.163 108.564 686.778 108.668ZM144.981 297.325C146.781 316.097 151.15 334.236 154.546 352.728Q164.962 411.009 177.744 468.817Q198.464 568.255 223.366 666.729Q248.268 765.204 277.308 862.538Q288.58 901.732 301.055 940.56C305.056 952.677 308.747 967.27 315.76 977.947C328.323 977.239 341.575 973.606 353.913 971.012Q389.543 963.493 425.026 955.305Q501.552 937.788 577.321 917.241Q653.09 896.695 727.982 873.152Q786.759 854.857 844.741 834.182C855.297 830.435 865.976 826.942 876.464 823.013C880.504 821.349 884.304 819.856 886.208 815.573C889.521 808.122 883.467 796.377 880.735 789.387C841.405 804.626 800.594 815.886 760.191 827.896Q641.289 862.515 521.326 893.253Q471.041 906.119 420.501 917.944C397.467 923.518 374.043 930.193 350.522 933.152C342.915 921.786 338.817 906.986 333.984 894.233L315.859 846.403Q277.83 742.466 244.024 637.079Q210.218 531.693 180.691 425.028L157.454 341.673C154.818 331.921 149.067 304.516 144.981 297.325ZM403.06 37.727C387.509 39.3725 371.99 45.5724 361.949 57.9712C353.913 67.8935 349.904 80.5381 351.349 93.2691Q352.068 99.4622 353.95 105.406C355.364 109.941 363.056 125.47 360.401 129.287C358.935 131.395 355.245 132.718 352.876 133.548C343.144 136.959 332.614 138.769 322.567 141.056L272.638 152.431C268.157 153.455 254.719 155.577 251.868 158.285C250.851 159.251 251.018 160.382 251.109 161.681C251.922 173.262 259.479 195.297 262.844 207.557C264.616 214.015 265.716 221.151 268.131 227.38C269.168 230.054 270.606 232.993 272.914 234.805C274.101 235.737 275.538 236.384 276.889 237.044C295.03 233.415 312.906 228.547 330.86 224.108L418.619 202.18L543.704 171.289L573.395 164.201C580.013 162.644 587.762 161.626 593.854 158.601C589.873 144.562 584.647 130.921 580.871 116.817C578.212 106.882 577.096 96.3649 574.151 86.5759C573.609 84.7752 572.877 83.2414 571.215 82.2561C564.991 82.1099 557.389 84.7548 551.267 86.1158L503.89 96.7088C493.618 99.0599 479.355 103.703 469.118 103.58C467.831 103.565 466.863 103.319 465.911 102.397C462.969 99.5489 462.068 94.0067 461.114 90.1326C455.581 67.6659 447.907 52.1156 425.398 42.9848C418.664 40.2535 410.988 37.38 403.597 37.6562C403.417 37.6629 403.239 37.7034 403.06 37.727Z"/>
	<path fill="#AFAFAF" transform="scale(0.435263 0.435263)" d="M404.667 58.6976C413.356 57.696 423.847 61.0688 430.777 66.2579Q431.545 66.8448 432.284 67.4684Q433.022 68.0919 433.73 68.7507Q434.437 69.4094 435.112 70.1017Q435.786 70.7941 436.426 71.5184Q437.066 72.2428 437.67 72.9974Q438.274 73.752 438.841 74.535Q439.408 75.3181 439.936 76.1278Q440.464 76.9375 440.952 77.772Q441.44 78.6064 441.886 79.4635Q442.333 80.3207 442.738 81.1986Q443.142 82.0764 443.504 82.973Q443.865 83.8695 444.183 84.7825Q444.5 85.6955 444.773 86.6229Q445.045 87.5502 445.272 88.4898Q445.5 89.4293 445.681 90.3788Q445.862 91.3282 445.997 92.2854C447.39 102.153 445.333 112.533 439.165 120.507C432.664 128.911 423.086 133.403 412.704 134.708C403.218 135.289 393.463 133.263 385.775 127.44Q384.996 126.842 384.248 126.206Q383.499 125.57 382.783 124.898Q382.066 124.226 381.384 123.52Q380.702 122.813 380.055 122.074Q379.408 121.335 378.799 120.565Q378.189 119.795 377.618 118.996Q377.047 118.196 376.516 117.37Q375.986 116.544 375.496 115.692Q375.007 114.841 374.56 113.966Q374.113 113.092 373.709 112.196Q373.306 111.301 372.947 110.386Q372.588 109.472 372.275 108.541Q371.962 107.61 371.694 106.665Q371.427 105.72 371.207 104.763Q370.987 103.806 370.814 102.839Q370.641 101.872 370.516 100.898Q370.396 99.9439 370.324 98.9851Q370.251 98.0263 370.226 97.0651Q370.201 96.1039 370.224 95.1426Q370.246 94.1813 370.316 93.2223Q370.386 92.2633 370.503 91.3089Q370.62 90.3545 370.784 89.407Q370.948 88.4596 371.158 87.5214Q371.369 86.5831 371.625 85.6564Q371.882 84.7298 372.184 83.8168Q372.486 82.9039 372.832 82.007Q373.179 81.1102 373.569 80.2314Q373.96 79.3527 374.393 78.4944Q374.826 77.636 375.302 76.8Q375.777 75.9641 376.293 75.1526Q376.808 74.3411 377.364 73.5561Q377.919 72.771 378.512 72.0143C384.956 63.9456 394.606 59.8298 404.667 58.6976ZM404.344 69.1383C396.151 71.282 389.401 74.6852 384.937 82.3383Q384.579 82.9531 384.253 83.585Q383.926 84.217 383.632 84.8645Q383.337 85.5121 383.076 86.1735Q382.814 86.835 382.586 87.5088Q382.358 88.1826 382.164 88.8669Q381.97 89.5513 381.811 90.2445Q381.651 90.9378 381.527 91.6381Q381.402 92.3385 381.313 93.0442Q381.224 93.7499 381.17 94.4592Q381.117 95.1685 381.099 95.8796Q381.081 96.5907 381.098 97.3018Q381.116 98.0129 381.169 98.7222Q381.222 99.4316 381.311 100.137Q381.4 100.843 381.524 101.544Q381.648 102.244 381.807 102.937Q381.966 103.631 382.16 104.315C384.012 110.965 388.128 116.641 394.171 120.067C400.141 123.45 406.309 124.14 413.011 123.727C421.261 121.312 428.02 117.942 432.382 110.068C435.738 104.01 436.731 96.667 434.688 90.0115C432.323 82.3033 426.591 75.9449 419.482 72.2736Q418.61 71.8316 417.71 71.4482Q416.81 71.0649 415.887 70.7419Q414.964 70.4189 414.022 70.1577Q413.079 69.8964 412.122 69.6981Q411.164 69.4997 410.195 69.3652Q409.227 69.2306 408.251 69.1604Q407.276 69.0902 406.298 69.0847Q405.32 69.0791 404.344 69.1383Z"/>
	<path fill="#AFAFAF" transform="scale(0.435263 0.435263)" d="M767.676 687.585C768.978 687.376 770.459 687.346 771.697 687.871C773.14 688.483 774.273 689.591 774.729 691.122C775.2 692.704 774.852 694.342 774.004 695.725C773.066 697.253 771.489 698.354 769.817 698.937C759.641 702.489 745.451 705.527 734.736 708.296Q697.716 717.683 660.855 727.674L535.548 761.874Q465.758 781.294 395.729 799.832C394.161 800.002 392.727 800.065 391.274 799.33C389.96 798.666 388.919 797.58 388.604 796.095C388.318 794.754 388.695 793.451 389.36 792.296C389.706 791.695 390.3 791.121 390.838 790.694C394.729 787.605 534.173 751.175 552 746.309L690.742 708.269Q729.065 697.391 767.676 687.585Z"/>
	<path fill="#AFAFAF" transform="scale(0.435263 0.435263)" d="M744.611 601.627C745.687 601.525 746.876 601.356 747.914 601.737C749.121 602.179 750.194 603.299 750.693 604.462C751.385 606.077 751.192 607.928 750.346 609.446C748.789 612.235 745.425 613.392 742.537 614.295C732.539 617.42 722.118 619.778 711.981 622.46L633.126 642.86Q498.153 677.724 364.109 716.003C362.777 715.996 361.478 715.725 360.324 715.017C358.948 714.174 357.898 712.809 357.67 711.184C357.476 709.804 357.895 708.355 358.702 707.233C360.033 705.382 362.18 704.489 364.286 703.828C381.369 698.472 398.995 694.373 416.265 689.598L565.261 649.464L683.892 617.736L720.169 607.884C728.274 605.669 736.358 603.236 744.611 601.627Z"/>
	<path fill="#AFAFAF" fill-opacity="0.98823529" transform="scale(0.435263 0.435263)" d="M647.857 262.093C649.067 261.953 650.647 261.638 651.842 261.928C653.53 262.338 655.319 263.645 656.065 265.255C656.624 266.463 656.708 267.553 656.12 268.777C655.185 270.726 652.738 271.827 650.879 272.65C645.797 274.902 639.985 275.9 634.595 277.204L608.999 283.379C585.02 289.17 561.125 295.473 537.206 301.53Q399.172 336.277 261.634 372.938C260.234 373.138 258.644 373.497 257.26 373.069C255.701 372.587 254.107 371.257 253.558 369.708C253.041 368.248 253.34 366.706 254.17 365.439C255.448 363.487 257.629 362.439 259.766 361.709C264.439 360.114 269.551 359.173 274.35 357.985Q285.02 355.337 295.618 352.413L396.701 326.245Q522.07 293.346 647.857 262.093Z"/>
	<path fill="#AFAFAF" transform="scale(0.435263 0.435263)" d="M673.076 346.586C674.517 346.414 676.184 346.307 677.584 346.759C679.04 347.23 680.566 348.119 681.183 349.593C681.782 351.024 681.339 352.603 680.581 353.875C679.052 356.44 675.902 357.956 673.131 358.734C668.993 359.895 664.694 360.555 660.517 361.578L625.394 370.489L544.749 391.095L286.609 458.539C285.628 458.799 284.149 459.135 283.155 458.925C281.689 458.615 279.084 456.476 278.402 455.108C277.914 454.13 277.965 453.086 278.476 452.133C278.927 451.294 279.72 450.574 280.467 450.001C282.922 448.119 285.881 447.009 288.817 446.119C302.182 442.07 316.19 439.194 329.728 435.672L416.558 413.003Q544.629 379.063 673.076 346.586Z"/>
	<path fill="#AFAFAF" fill-opacity="0.98823529" transform="scale(0.435263 0.435263)" d="M720.181 517.656C720.873 517.78 721.547 517.971 722.204 518.224C723.532 518.735 724.94 519.86 725.355 521.269C725.885 523.067 725.201 525.05 724.149 526.52C722.913 528.246 721.426 528.839 719.464 529.471C708.544 532.989 696.778 534.943 685.632 537.818L603.056 559.345L422.258 607.787L366.693 622.701C357.007 625.311 346.941 628.837 337.068 630.371C336.356 630.22 335.463 630.081 334.815 629.752C333.416 629.041 332.38 627.7 331.962 626.196C331.517 624.597 331.742 622.935 332.693 621.563C333.941 619.76 335.864 619.059 337.876 618.437C343.962 616.558 350.352 615.409 356.504 613.69Q391.166 603.913 426.028 594.875L575.932 554.731L670.467 530.061L699.895 522.411C706.569 520.683 713.359 518.657 720.181 517.656Z"/>
	<path fill="#AFAFAF" fill-opacity="0.98823529" transform="scale(0.435263 0.435263)" d="M696.729 432.101C697.661 431.986 699.11 431.699 700.005 432.011C701.681 432.594 703.255 434.842 703.842 436.443C703.807 437.356 703.804 438.135 703.299 438.94C701.445 441.897 697.21 443.624 694.029 444.624C684.282 447.691 674.105 449.409 664.208 451.963L583.957 472.606L308.717 545.896C307.806 545.747 306.786 545.629 305.948 545.211C304.413 544.446 303.053 542.669 302.611 541.023C302.146 539.295 302.691 537.634 303.695 536.214C304.95 534.439 310.807 533.072 312.912 532.47C329.992 527.59 347.511 523.801 364.704 519.266Q426.885 502.308 489.306 486.258Q557.303 467.929 625.554 450.574C649.259 444.385 672.911 437.84 696.729 432.101Z"/>
</svg>
