<?xml version="1.0" encoding="utf-8" ?>
<svg xmlns="http://www.w3.org/2000/svg" xmlns:xlink="http://www.w3.org/1999/xlink" width="1024" height="1024">
	<path fill="#C5C5C5" transform="scale(2 2)" d="M159.577 418.121C155.942 413.845 154.247 411.383 153.48 405.657C141.339 314.983 141.21 220.72 162.491 131.367L166.83 113.872C167.667 110.584 168.71 107.23 169.257 103.884C171.273 91.5639 163.659 68.5078 176.781 67.3132L316.799 67.3076C323.543 67.3076 330.494 66.9861 337.215 67.5216C342.986 67.9815 341.918 75.7559 341.917 79.8244C341.913 99.0912 341.71 99.6859 346.223 117.565C354.882 151.87 359.523 186.509 362.998 221.625C368.625 278.488 365.849 335.134 359.735 391.875C358.749 401.022 359.731 410.266 352.25 416.809L352.284 426.112C352.312 439.764 349.05 444.232 335.14 444.261L317.339 444.259C292.189 444.255 291.369 442.829 291.493 418.121C283.441 410.169 283.944 403.183 281.651 392.211C275.031 360.527 271.576 331.487 268.882 299.517C266.68 278.331 259.524 253.721 255.945 232.035C255.134 235.555 254.599 239.187 253.916 242.74L248.953 268.814C245.044 288.919 243.059 301.095 241.332 321.44C239.176 346.843 235.433 371.769 229.993 396.669C228.294 404.443 227.698 413.154 220.732 418.121C220.695 431.799 222.587 443.939 205.136 444.226C197.407 444.353 189.664 444.269 181.934 444.271C166.034 444.275 159.383 444.692 159.548 426.469L159.577 418.121ZM180.27 78.2902L180.27 99.3397C186.38 99.4071 192.508 100.395 198.579 101.059C239.156 105.493 287.007 104.045 327.44 99.3397C328.707 99.3298 329.974 99.3173 331.241 99.3397L331.241 78.2902L180.27 78.2902ZM179.194 109.596C173.634 130.169 168.754 152.16 165.634 173.226C168.791 170.752 171.444 167.516 174.079 164.506C186.96 149.206 191.981 130.657 195.516 111.355C190.03 111.054 184.657 109.988 179.194 109.596ZM332.098 109.596C326.818 110.438 321.495 110.877 316.172 111.355C318.757 132.36 325.332 149.611 339.064 165.894C341.614 168.808 344.155 171.753 346.908 174.48C345.329 165.28 336.092 113.315 332.225 109.599L332.098 109.596ZM304.825 112.366C294.816 113.299 284.773 113.584 274.777 114.51C274.6 120.699 275.219 126.958 274.605 133.123C273.657 142.65 270.911 150.094 271.535 160.108C272.157 170.081 275.268 178.97 277.404 188.546C276.816 190.292 276.156 191.878 274.393 192.733C261.607 198.936 260.303 153.545 261.163 147.12C261.866 141.86 263.55 136.75 264.043 131.487C264.575 125.815 263.536 120.137 264.225 114.51L247.774 114.51C249.684 128.262 248.918 133.116 246.246 145.891C244.537 154.06 245.343 163.488 247.545 171.571C248.539 175.22 250.942 180.459 248.452 183.91C246.785 186.22 243.742 186.769 241.447 185.037C234.663 179.918 234.096 152.019 235.899 143.085C238.274 131.316 238.745 126.78 236.583 114.51C229.257 114.005 213.068 112.417 206.127 113.175C200.403 144.529 190.861 170.585 163.097 188.546C152.781 252.676 155.095 318.096 161.439 382.493C161.9 387.177 163.088 405.899 165.027 408.642C167.195 411.709 173.407 410.925 176.64 410.901L202.681 410.888C215.15 410.92 215.631 412.109 218.323 400.263C225.477 371.96 229.205 343.023 231.532 313.97C232.66 299.885 233.773 290.267 236.549 276.363L245.055 233.654C245.999 228.872 246.36 222.333 251.035 219.546C255.382 216.954 261.977 218.21 264.545 222.76C266.695 226.571 273.199 265.789 274.646 272.892C279.018 294.361 280.032 310.115 282.38 331.735C283.266 339.883 292.016 407.789 298.717 410.346C301.301 411.332 337.3 411.04 341.951 410.638C349.434 409.991 348.401 400.158 349.026 394.608C355.605 336.179 358.248 277.558 352.06 219.001L350.23 202.274C349.777 198.199 349.43 194.067 348.627 190.043C324.543 171.148 309.871 145.53 305.835 115.441C305.744 114.762 305.7 112.308 304.825 112.366ZM302.023 421.41L302.023 433.392L341.493 433.392C341.541 429.398 341.512 425.404 341.493 421.41L302.023 421.41ZM169.614 421.41C169.612 425.438 169.995 429.36 169.614 433.392L209.541 433.392C209.929 429.46 209.489 425.371 209.541 421.41L169.614 421.41Z"/>
</svg>
