<?xml version="1.0" encoding="utf-8" ?>
<svg xmlns="http://www.w3.org/2000/svg" xmlns:xlink="http://www.w3.org/1999/xlink" width="1024" height="1024">
	<path fill="#C5C5C5" transform="scale(2 2)" d="M245.41 360.811C243.983 369.214 242.982 382.108 237.552 388.639C228.372 399.682 215.408 395.156 203.237 393.538L114.363 381.658C100.986 379.935 76.3475 380.436 75.0703 362.429C74.7195 357.484 76.0686 352.291 76.7728 347.4L84.941 291.139C90.9274 248.247 98.0629 205.541 110.085 163.858C112.523 155.407 112.815 152.548 112.811 143.65L112.809 126.018C112.813 123.036 111.846 118.538 114.115 116.109C116.331 113.738 135.233 114.91 139.131 114.91L324.079 114.911L369.205 114.909C377.115 114.907 385.253 114.528 393.143 115.006C398.521 115.332 399.26 116.4 399.277 121.914L399.253 144.78C399.228 156.831 399.026 155.023 402.731 166.3C412.014 194.559 417.358 224.025 421.877 253.369L435.228 344.66C436.466 353.099 439.277 362.683 434.054 370.333C426.981 380.693 405.204 380.54 393.33 382.246L304.605 394.273C299.724 394.967 294.479 396.139 289.555 396.082C268.043 395.833 268.138 369.759 265.374 354.653C262.239 337.516 258.759 320.434 255.716 303.28C252.111 322.431 249.105 341.666 245.41 360.811ZM125.978 125.345L123.266 125.345L123.266 151.442L386.807 151.442C390.487 151.204 388.799 145.837 388.771 141.936L388.76 125.345L125.978 125.345ZM121.578 161.756C115.524 184.601 109.259 207.255 105.007 230.551C104.473 233.477 103.803 236.515 103.656 239.489C112.515 236.464 120.954 231.252 128.074 225.205C146.206 209.206 157.541 185.839 159.564 161.756L121.578 161.756ZM170.537 161.756C168.645 163.136 164.782 234.274 101.476 250.866C98.6005 272.017 95.3294 293.181 92.1184 314.285L89.117 334.053C88.466 338.338 87.7074 342.6 87.3267 346.921C92.5002 347.032 97.6551 347.946 102.772 348.67L148.146 355.022C150.832 355.394 162.645 355.661 163.239 359.181C161.657 364.004 144.504 359.357 140.821 358.859L110 354.649C102.46 353.594 94.8971 352.418 87.3267 351.625C80.1183 370.509 94.2858 368.346 108.203 370.277L212.215 384.343C223.47 385.88 232.243 387.157 232.804 372.089C222.039 370.785 205.006 369.486 194.714 367.095C190.365 366.084 191.926 361.883 195.927 362.177C207.539 363.031 222.134 365.586 233.729 367.336C235.514 359.091 236.79 350.689 238.247 342.378C241.686 322.776 245.602 303.236 248.926 283.623C249.452 280.521 249.634 272.956 252.652 271.082C262.394 265.029 262.875 283.941 263.77 288.876L277.969 367.336C283.982 366.128 290.132 365.514 296.215 364.751L327.691 360.811C330.509 360.383 345.873 355.972 346.048 361.218C344.063 365.101 327.911 365.471 323.769 365.996L299.881 369.192C292.858 370.097 285.781 370.842 278.809 372.089C280.831 388.042 288.581 386.193 301.801 384.375L352.261 377.495C366.374 375.6 380.51 373.845 394.588 371.698L409.38 369.466C423.521 367.418 428.232 368.735 425.437 351.625C419.16 352.652 381.143 358.96 377.898 358.059C371.185 353.068 389.241 352.203 390.538 352.006L425.437 346.921C423.756 341.295 423.095 335.503 422.261 329.706L411.172 250.866C368.315 238.433 348.136 204.547 341.701 161.756L274.198 161.756L274.208 202.052C274.213 228.147 276.792 219.571 257.886 239.113C255.061 242.033 243.156 258.402 238.449 249.838C236.775 246.792 237.818 222.237 237.819 217.336L237.816 161.756L170.537 161.756ZM250.64 161.756L248.017 161.756L248.017 234.087C250.394 231.963 252.566 229.642 254.766 227.339C257.775 224.257 261.294 221.146 263.858 217.703L263.858 161.756L250.64 161.756ZM351.884 161.756C356.62 193.146 375.915 231.249 409.295 239.489C404.88 215.664 399.17 184.291 390.064 161.756L351.884 161.756Z"/>
	<path fill="#C5C5C5" transform="scale(2 2)" d="M256.765 183.111C251.999 184.036 250.583 177.805 254.766 176.034C260.024 176.028 260.77 180.589 256.765 183.111Z"/>
	<path fill="#C5C5C5" transform="scale(2 2)" d="M256.765 207.243C251.335 208.196 250.907 202.556 254.766 200.226C259.405 200.373 261.29 205.354 256.765 207.243Z"/>
</svg>
