<?xml version="1.0" encoding="utf-8" ?>
<svg xmlns="http://www.w3.org/2000/svg" xmlns:xlink="http://www.w3.org/1999/xlink" width="1024" height="1024">
	<path fill="#C5C5C5" transform="scale(2 2)" d="M176.014 148.732C171.979 131.273 178.636 113.939 198.415 111.46C221.589 108.555 225.436 92.453 254.907 91.9972C265.67 90.9497 280.22 95.5549 289.394 101.279C293.616 103.912 297.274 107.362 301.931 109.274C307.112 111.402 312.317 110.768 317.558 112.15C333.557 116.367 340.054 132.009 336.011 147.353C342.588 151.643 349.966 155.255 356.885 158.953C369.853 165.884 368.766 164.368 374.358 178.147C391.111 219.428 397.841 263.377 403.92 307.293L406.748 327.911C407.954 336.78 410.289 345.797 403.164 352.955C409.117 375.658 409.591 372.984 389.958 377.795C365.743 383.729 372.333 382.318 364.198 361.985C362.333 357.323 357.856 355.565 355.588 350.059C351.133 339.244 348.036 319.48 344.658 307.397L344.671 370.648C344.682 380.179 342.168 383.777 341.803 390.302C340.752 409.09 347.121 409.615 326.969 413.382C304.884 417.511 282.108 419.704 259.625 419.558C234.119 419.623 208.436 417.876 183.397 412.803C165.184 409.113 170.997 408.351 169.956 390.492C169.755 387.042 167.965 384.017 167.754 380.549C166.401 358.276 167.377 330.748 167.663 308.246C163.194 321.871 160.58 348.866 150.923 357.71C144.759 363.354 146.003 370.007 142.54 376.974C139.325 383.444 133.343 380.444 127.992 379.399C123.47 378.516 112.684 377.438 109.087 375.256C103.038 371.588 107.868 359.349 107.588 353.57C107.442 350.563 105.658 347.574 104.933 344.65C103.564 339.131 104.634 333.632 105.282 328.08C110.904 279.944 118.655 231.056 134.788 185.253C136.774 179.614 140.185 166.365 145.232 163.158C150.34 159.91 171.38 149.804 176.014 148.732ZM252.402 103.602C231.581 105.584 227.878 114.53 211.53 121.048C216.787 130.709 223.059 139.472 228.933 148.732L259.625 148.732L282.816 148.732C288.948 139.049 294.48 131.498 299.971 121.048C283.103 112.887 274.231 101.424 252.402 103.602ZM199.362 122.891C185.966 126.668 181.327 139.752 190.837 149.963C198.185 157.853 219.488 169.789 229.452 174.879L230.922 175.618C233.849 177.075 236.765 178.565 239.716 179.972C226.887 163.922 214.014 148.951 203.938 130.937C203.11 129.456 200.422 123.605 199.542 122.911L199.362 122.891ZM312.001 122.891C303.284 141.933 287.467 162.925 273.458 179.067C277.035 177.366 280.642 175.707 284.164 173.894C295.205 168.249 321.269 154.88 325.287 142.68C328.455 133.059 321.401 124.252 312.001 122.891ZM329.859 157.86C314.502 169.667 304.234 176.946 286.454 185.854C280.443 188.867 274 191.089 268.063 194.166C274.221 204.902 273.001 216.547 273.788 228.501C273.991 231.571 275.191 237.96 274.538 240.634C273.4 245.291 266.173 245.949 264.058 241.726C260.378 234.381 264.397 200.652 256.629 198.441C248.382 196.094 250.451 230.056 239.845 228.779C236.783 228.41 235.36 225.966 234.651 223.282C236.561 215.097 240.004 200.91 243.858 194.166C229.772 187.919 192.621 169.793 182.337 157.86L166.662 165.267C162.616 167.163 158.423 168.777 154.816 171.458C158.52 175.256 160.968 180.466 163.382 185.151C179.901 217.212 179 248.699 179.001 283.681L178.997 337.188L178.988 363.264C178.991 377.961 175.623 383.555 192.428 383.559L250.604 383.55L250.573 314.319C250.531 309.127 248.854 299.43 256.883 299.746C263.1 299.991 261.827 310.053 261.824 314.122L261.812 383.55L319.727 383.554C325.01 383.551 330.116 384.554 333.285 379.392C333.597 369.285 333.284 359.074 333.281 348.957L333.281 260.086C333.289 226.294 337.996 201.584 355.757 171.458C351.492 168.938 333.482 158.311 329.859 157.86ZM238.674 160.338C244.371 167.629 250.326 174.741 256.333 181.778C258.904 178.59 261.445 175.37 264.125 172.273C267.3 168.429 270.867 164.597 273.458 160.338C261.868 160.339 250.262 160.474 238.674 160.338ZM363.112 181.778C350.407 202.455 345.294 227.361 344.501 251.375C344.093 263.756 344.8 264.298 347.685 275.701L360.551 324.72C363.067 333.999 363.748 346.662 372.381 351.163C373.877 350.851 375.384 350.564 376.87 350.212C396.137 345.584 398.618 349.163 395.464 327.354L393.251 311.767C387.905 273.876 382.186 235.444 370.074 199.012C368.94 195.601 365.081 183.724 363.112 181.778ZM148.344 181.778C130.896 224.729 121.336 285.262 116.459 330.638C115.872 336.098 114.901 341.278 117.827 346.248C124.015 347.557 130.373 348.392 136.434 350.212C142.577 350.779 145.1 349.599 147.045 343.623C149.058 337.44 150.279 330.758 151.857 324.43L165.756 270.205C168.273 260.252 167.828 257.007 167.219 246.67C166.286 230.797 159.441 194.254 148.344 181.778ZM118.582 358.3C118.227 360.775 117.831 363.228 117.827 365.735C119.587 366.159 132.544 369.247 133.361 368.928L133.331 368.788C134.09 366.072 134.769 364.135 136.434 361.844C130.821 359.881 124.525 358.648 118.582 358.3ZM391.38 358.3C386.269 359.437 381.166 360.589 376.081 361.844C376.615 363.624 377.258 367.445 378.403 368.74L378.806 368.788C383.741 367.578 388.779 366.007 393.866 365.735C393.602 363.916 393.419 359.583 392.207 358.276L391.38 358.3ZM181.275 394.867L181.275 401.438C186.899 401.969 192.474 403.124 198.059 403.961C240.318 410.29 282.606 408.894 324.812 402.417L330.628 401.438L330.628 394.867L181.275 394.867Z"/>
	<path fill="#C5C5C5" transform="scale(2 2)" d="M196.25 359.543C190.194 359.972 186.885 352.624 192.156 348.934C209.139 337.044 217.504 333.814 226.895 311.742C228.737 307.412 228.633 302.075 233.529 300.031C242.859 298.555 239.915 309.324 238.031 314.203C230.618 333.402 215.286 351.18 196.25 359.543Z"/>
	<path fill="#C5C5C5" transform="scale(2 2)" d="M318 359.543C313.373 360.3 307.599 355.311 304.16 352.802C290.252 342.65 279.946 329.013 274.313 312.721C272.665 307.956 271.071 302.056 277.097 300.031C283.505 299.487 283.876 305.975 285.559 310.522C290.523 323.932 300.003 336.609 311.899 344.628C315.608 347.129 330.587 354.408 318 359.543Z"/>
</svg>
