<?xml version="1.0" encoding="utf-8" ?>
<svg xmlns="http://www.w3.org/2000/svg" xmlns:xlink="http://www.w3.org/1999/xlink" width="1024" height="1024">
	<path fill="#C5C5C5" transform="scale(2 2)" d="M147.74 240.736L126.678 258.073C123.096 260.99 119.536 264.205 115.757 266.85C109.632 271.139 105.989 264.119 101.63 259.666L73.1968 230.656C70.0687 227.487 66.666 224.494 63.753 221.129C60.0707 216.876 63.2606 214.181 65.8677 210.513L72.0034 201.808C86.2545 181.376 100.967 160.283 118.689 142.639C128.869 132.502 136.127 129.802 149.423 125.134C158.511 121.943 181.699 115.528 188.993 111.304C195.226 107.694 206.364 92.9107 211.905 91.1147C215.158 90.0605 239.745 90.6334 245.064 90.6408L278.413 90.631C283.126 90.6306 297.202 89.612 301.155 91.5188C305.452 93.5916 319.581 108.581 323.796 113.099C339.226 115.832 365.834 124.815 379.075 131.957C399.557 143.005 423.776 180.17 437.165 198.905C439.765 202.543 448.351 213.302 449.241 216.722C450.13 220.137 444.492 224.056 442.45 226.115L411.704 256.906C398.075 270.632 401.391 271.12 385.689 258.076C378.347 251.977 370.941 245.705 363.291 240.006C363.782 247.858 362.741 255.975 362.522 263.851C361.964 283.892 362.468 303.863 363.204 323.882L365.712 386.895C366.211 403.292 370.557 404.643 355.375 409.213C330.403 416.73 293.14 421.777 266.302 421.421C229.823 421.448 197.95 419.258 161.853 410.947C139.172 405.726 145.099 406.733 146.261 382.569L147.681 347.445C149.041 312.672 149.368 275.285 147.74 240.736ZM237.498 100.814L220.091 100.814C224.22 124.049 246.808 142.849 270.392 131.704C282.315 125.654 289.37 113.68 291.42 100.814L237.498 100.814ZM301.035 105.183C295.129 125.88 283.842 141.476 261.789 144.922C266.969 151.389 274.154 156.531 280.841 161.347C282.911 162.715 287.007 166.156 289.567 165.626C297.018 164.082 312.355 125.715 314.94 118.131C311.594 114.744 304.815 106.902 301.035 105.183ZM210.374 105.183C205.718 109.265 201.595 113.949 197.023 118.131C200.725 129.322 213.866 159.948 223.445 166.223C226.806 164.973 229.75 162.764 232.622 160.654C239.045 155.796 245.14 150.472 250.975 144.922C233.191 141.866 218.171 128.898 212.657 111.707C212.191 110.254 211.446 106.088 210.374 105.183ZM187.862 122.761L159.532 132.452C150.545 135.6 141.211 138.049 133.395 143.718C122.007 151.977 95.7783 183.18 88.2 197.263C93.7964 201.579 99.4185 208.3 104.462 213.458L120.326 229.77C123.959 233.439 127.739 236.985 131.286 240.736L146.755 228.145C145.996 212.841 141.677 190.454 138.499 175.374C137.903 172.547 136.311 168.728 138.646 166.278C146.922 157.593 149.449 177.44 150.074 180.697C155.774 210.403 158.976 240.123 158.896 270.385C175.281 290.549 185.858 313.902 191.408 339.121C192.331 343.316 194.009 349.615 193.54 353.81C192.924 359.313 187.171 359.691 184.009 356.166C183.216 353.655 183.02 351.028 182.626 348.438C179.316 326.657 170.444 306.12 158.896 287.47C159.724 312.153 158.328 341.35 157.199 366.095L156.208 387.547C156.036 391.398 155.725 395.23 155.772 399.087C160.589 399.875 165.325 401.191 170.082 402.273C228.05 415.454 299.592 414.937 356.239 398.313C355.327 382.443 355.687 364.015 353.985 348.562C353.51 330.26 350.814 306.192 352.459 288.367C342.599 301.276 333.938 326.383 330.914 341.724C330.02 346.261 331.432 357.809 325.068 358.675C311.513 360.518 324.445 305.479 352.459 270.385C352.407 257.476 357.821 173.508 365.3 166.182C367.313 164.211 370.952 164.708 372.705 166.745C375.471 169.958 370.94 182.728 370.208 186.687C367.686 200.319 365.412 214.305 364.434 228.145C369.78 231.987 375.512 236.003 380.108 240.736C391.671 226.767 410.318 209.99 423.516 197.263C416.173 184.37 387.682 148.587 376.763 142.098C365.113 135.174 336.591 126.371 323.796 123.589C320.124 134.477 305.811 169.261 294.629 174.754C287.202 178.402 280.575 173.383 274.481 169.614L274.495 194.92C274.515 200.221 276.957 208.736 269.55 209.676C264.553 210.31 248.464 210.108 243.053 209.713C235.107 209.133 237.479 199.196 237.482 193.641L237.498 169.614C225.468 177.961 218.783 179.876 209.481 166.254C202.163 155.539 195.531 143.286 191.122 131.077C190.748 130.039 188.512 122.926 187.862 122.761ZM256.135 154.253C253.413 156.71 250.723 159.42 247.586 161.347L247.586 199.683L256.135 199.683L264.485 199.683L264.485 161.347C261.654 159.038 258.809 156.745 256.135 154.253ZM82.0162 205.718C79.0358 209.046 76.3151 213.073 74.1539 216.985C84.367 228.003 101.199 246.546 112.655 256.083L114.803 254.457C117.674 252.079 120.51 249.604 123.531 247.42C120.061 243.78 83.5964 206.381 82.0162 205.718ZM429.511 205.718L397.261 237.385C394.206 240.398 391.372 243.668 388.222 246.579C390.962 249.392 394.118 251.718 396.908 254.457C397.507 254.871 397.972 255.384 398.712 255.381L424.498 229.444C428.663 225.297 432.713 220.885 437.099 216.985C435.509 214.142 431.763 207.742 429.511 205.718Z"/>
	<path fill="#C5C5C5" transform="scale(2 2)" d="M323.796 223.566C318.449 227.652 309.424 226.43 304.505 222.333C297.904 216.836 297.252 204.095 298.61 196.315C299.126 193.36 301.185 192.621 303.951 192.405L319.122 192.391C321.876 192.389 329.222 191.404 331.053 194.087C335.621 200.783 332.63 218.019 323.796 223.566ZM308.456 202.465C308.263 206.162 307.57 210.816 310.275 213.8C312.702 216.479 317.459 216.46 319.798 213.741C322.885 210.088 322.345 206.923 322.289 202.465L308.456 202.465Z"/>
</svg>
